<svg width="64" height="59" viewBox="0 0 64 59" fill="none" xmlns="http://www.w3.org/2000/svg">
<path d="M2.69644 56.5093C11.6311 59.9965 58.1714 61.1657 63.2717 50.8772C64.343 41.2197 64.5468 11.3599 61.6779 4.57879C55.8338 -2.90377 8.85931 0.603686 2.69644 2.47433C-1.97884 12.7628 0.367955 50.6433 2.69644 56.5093Z" fill="#FBEFFF"/>
<path d="M45.8281 28.0937H21.0103L25.1215 24.0025C25.5802 23.5459 25.582 22.804 25.1254 22.3452C24.6688 21.8864 23.9268 21.8847 23.4681 22.3412L17.3448 28.435C17.3444 28.4353 17.3441 28.4358 17.3437 28.4361C16.8862 28.8927 16.8847 29.637 17.3436 30.0951C17.344 30.0955 17.3443 30.0959 17.3447 30.0962L23.4679 36.19C23.9266 36.6464 24.6687 36.6448 25.1253 36.186C25.5818 35.7273 25.5801 34.9853 25.1213 34.5287L21.0103 30.4375H45.8281C46.4754 30.4375 47 29.9128 47 29.2656C47 28.6184 46.4754 28.0937 45.8281 28.0937Z" fill="black"/>
</svg>
