<svg width="30" height="30" viewBox="0 0 30 30" fill="none" xmlns="http://www.w3.org/2000/svg">
<g clip-path="url(#clip0_201_15)">
<path d="M15.0037 0H14.9963C6.72563 0 0 6.7275 0 15C0 18.2812 1.0575 21.3225 2.85562 23.7919L0.98625 29.3644L6.75187 27.5213C9.12375 29.0925 11.9531 30 15.0037 30C23.2744 30 30 23.2706 30 15C30 6.72938 23.2744 0 15.0037 0Z" fill="#4CAF50"/>
<path d="M23.732 21.1819C23.3702 22.2038 21.9339 23.0513 20.7883 23.2987C20.0045 23.4656 18.9808 23.5988 15.5345 22.17C11.1264 20.3438 8.28766 15.8644 8.06641 15.5738C7.85453 15.2831 6.28516 13.2019 6.28516 11.0494C6.28516 8.89688 7.37828 7.84875 7.81891 7.39875C8.18078 7.02938 8.77891 6.86063 9.35266 6.86063C9.53828 6.86063 9.70516 6.87 9.85516 6.8775C10.2958 6.89625 10.517 6.9225 10.8077 7.61813C11.1695 8.49 12.0508 10.6425 12.1558 10.8638C12.2627 11.085 12.3695 11.385 12.2195 11.6756C12.0789 11.9756 11.9552 12.1088 11.7339 12.3638C11.5127 12.6188 11.3027 12.8138 11.0814 13.0875C10.8789 13.3256 10.6502 13.5806 10.9052 14.0213C11.1602 14.4525 12.0414 15.8906 13.3389 17.0456C15.0133 18.5363 16.3708 19.0125 16.8564 19.215C17.2183 19.365 17.6495 19.3294 17.9139 19.0481C18.2495 18.6863 18.6639 18.0863 19.0858 17.4956C19.3858 17.0719 19.7645 17.0194 20.162 17.1694C20.567 17.31 22.7102 18.3694 23.1508 18.5887C23.5914 18.81 23.882 18.915 23.9889 19.1006C24.0939 19.2863 24.0939 20.1581 23.732 21.1819Z" fill="#FAFAFA"/>
</g>
<defs>
<clipPath id="clip0_201_15">
<rect width="30" height="30" fill="white"/>
</clipPath>
</defs>
</svg>
