<svg width="31" height="32" viewBox="0 0 31 32" fill="none" xmlns="http://www.w3.org/2000/svg">
<g clip-path="url(#clip0_201_11)">
<path d="M15.5 31.5C24.0604 31.5 31 24.5604 31 16C31 7.43959 24.0604 0.5 15.5 0.5C6.93959 0.5 0 7.43959 0 16C0 24.5604 6.93959 31.5 15.5 31.5Z" fill="url(#paint0_linear_201_11)"/>
<path fill-rule="evenodd" clip-rule="evenodd" d="M7.01608 15.8364C11.5346 13.8677 14.5478 12.5698 16.0553 11.9428C20.3598 10.1525 21.2543 9.84142 21.8372 9.83113C21.9655 9.82889 22.2522 9.86068 22.4379 10.0114C22.7133 10.2349 22.7149 10.7201 22.6843 11.0413C22.4511 13.4922 21.4417 19.4399 20.9282 22.185C20.7109 23.3465 20.2831 23.736 19.869 23.7741C18.9689 23.8569 18.2854 23.1792 17.4136 22.6078C16.0494 21.7135 15.2787 21.1568 13.9545 20.2842C12.4241 19.2758 13.4162 18.7215 14.2883 17.8157C14.5166 17.5787 18.4825 13.9713 18.5592 13.6441C18.5689 13.6031 18.5778 13.4506 18.4871 13.37C18.3965 13.2895 18.2627 13.317 18.1662 13.3389C18.0294 13.37 15.8501 14.8104 11.6282 17.6603C11.0096 18.0851 10.4493 18.292 9.94734 18.2812C9.39388 18.2692 8.32934 17.9683 7.53794 17.711C6.56725 17.3955 5.79576 17.2286 5.86297 16.6928C5.89796 16.4136 6.28232 16.1282 7.01608 15.8364Z" fill="white"/>
</g>
<defs>
<linearGradient id="paint0_linear_201_11" x1="15.5" y1="0.5" x2="15.5" y2="31.2578" gradientUnits="userSpaceOnUse">
<stop stop-color="#2AABEE"/>
<stop offset="1" stop-color="#229ED9"/>
</linearGradient>
<clipPath id="clip0_201_11">
<rect width="31" height="31" fill="white" transform="translate(0 0.5)"/>
</clipPath>
</defs>
</svg>
