<svg width="116" height="86" viewBox="0 0 116 86" fill="none" xmlns="http://www.w3.org/2000/svg">
<path d="M24.8925 13.5781C23.6432 13.5781 22.6294 14.592 22.6294 15.8412C22.6294 17.0904 23.6432 18.1042 24.8925 18.1042C26.1417 18.1042 27.1555 17.0904 27.1555 15.8412C27.1555 14.592 26.1417 13.5781 24.8925 13.5781Z" fill="#404ECD"/>
<path d="M106.573 32.9325L103.299 26.3834C102.141 24.0679 99.8142 22.6297 97.2262 22.6297H78.2987V6.78895C78.2987 3.04562 75.2533 0 71.5097 0H6.78895C3.0454 0 0 3.0454 0 6.78895V65.626C0 69.3693 3.0454 72.4149 6.78895 72.4149H13.5779C13.5779 75.8896 14.8916 79.0627 17.0463 81.4667H2.26306C1.01317 81.4667 0 82.4801 0 83.7298C0 84.9794 1.01317 85.9928 2.26306 85.9928H113.601C114.851 85.9928 115.864 84.9794 115.864 83.7298C115.864 82.4801 114.851 81.4667 113.601 81.4667H107.87C110.024 79.0624 111.338 75.8896 111.338 72.4149C111.338 72.2859 111.332 72.1576 111.328 72.0289C113.967 71.0974 115.864 68.5797 115.864 65.626V53.1162C115.864 50.4755 116.387 52.9409 106.573 32.9325ZM103.15 36.2074L109.939 49.7852H87.3504V36.2074H103.15ZM4.52589 54.3111H9.05178V58.837H4.52589V54.3111ZM27.1556 81.4667C22.1644 81.4667 18.1038 77.4059 18.1038 72.4149C18.1038 71.7985 18.1649 71.1917 18.2871 70.6018C19.1382 66.4074 22.868 63.3629 27.1556 63.3629C31.4432 63.3629 35.1731 66.4072 36.024 70.6018C36.0247 70.6052 36.0254 70.6081 36.0261 70.6113C36.1465 71.1915 36.2074 71.7985 36.2074 72.4149C36.2074 77.4061 32.1467 81.4667 27.1556 81.4667ZM27.1556 58.837C21.3574 58.837 16.2404 62.5514 14.3539 67.8888H6.78895C5.5411 67.8888 4.52589 66.8736 4.52589 65.6258V63.3627H11.3148C12.5647 63.3627 13.5779 62.3493 13.5779 61.0996V52.0479C13.5779 50.7982 12.5647 49.7848 11.3148 49.7848H4.52589V6.78895C4.52589 5.5411 5.5411 4.52589 6.78895 4.52589H71.5097C72.7576 4.52589 73.7728 5.5411 73.7728 6.78895C73.7728 8.47244 73.7728 62.462 73.7728 67.889H39.9561C38.0662 62.5487 32.9513 58.837 27.1556 58.837ZM37.2649 81.4667C39.4198 79.0624 40.7332 75.8896 40.7332 72.4149C42.4708 72.4149 83.4424 72.4149 84.1822 72.4149C84.1822 75.8896 85.4959 79.0627 87.6505 81.4667H37.2649ZM97.76 81.4667C92.7689 81.4667 88.7083 77.4059 88.7083 72.4149C88.7083 71.7985 88.7694 71.1917 88.8916 70.6018C89.7427 66.4074 93.4725 63.3629 97.76 63.3629C102.048 63.3629 105.778 66.4072 106.629 70.6018C106.629 70.6052 106.63 70.6081 106.631 70.6113C106.751 71.1915 106.812 71.7985 106.812 72.4149C106.812 77.4061 102.751 81.4667 97.76 81.4667ZM111.338 65.626C111.338 66.3787 110.967 67.0447 110.4 67.4566C108.393 62.3491 103.398 58.8373 97.76 58.8373C91.9619 58.8373 86.8449 62.5516 84.9584 67.889H78.2984V27.1556H97.226C98.0886 27.1556 98.8642 27.6353 99.2503 28.4073L100.887 31.6815H85.0876C83.8377 31.6815 82.8245 32.6949 82.8245 33.9445V52.0483C82.8245 53.298 83.8377 54.3114 85.0876 54.3114H111.338V65.626Z" fill="#404ECD"/>
<path d="M62.4581 13.5781H33.9447C32.6948 13.5781 31.6816 14.5915 31.6816 15.8412C31.6816 17.0908 32.6948 18.1042 33.9447 18.1042H62.4581C63.708 18.1042 64.7212 17.0908 64.7212 15.8412C64.7212 14.5915 63.7078 13.5781 62.4581 13.5781Z" fill="#404ECD"/>
<path d="M62.4581 22.6299H42.9965C41.7466 22.6299 40.7334 23.6433 40.7334 24.8929C40.7334 26.1426 41.7466 27.156 42.9965 27.156H62.4581C63.708 27.156 64.7211 26.1426 64.7211 24.8929C64.7211 23.6433 63.7077 22.6299 62.4581 22.6299Z" fill="#404ECD"/>
<path d="M97.7603 67.8892C95.2646 67.8892 93.2344 69.9196 93.2344 72.415C93.2344 74.9107 95.2648 76.9409 97.7603 76.9409C100.256 76.9409 102.286 74.9105 102.286 72.415C102.286 69.9193 100.256 67.8892 97.7603 67.8892Z" fill="#404ECD"/>
<path d="M27.1558 67.8892C24.6601 67.8892 22.6299 69.9196 22.6299 72.415C22.6299 74.9107 24.6603 76.9409 27.1558 76.9409C29.6515 76.9409 31.6817 74.9105 31.6817 72.415C31.6817 69.9193 29.6515 67.8892 27.1558 67.8892Z" fill="#404ECD"/>
</svg>
