<svg width="103" height="103" viewBox="0 0 103 103" fill="none" xmlns="http://www.w3.org/2000/svg">
<g clip-path="url(#clip0_8_2284)">
<path d="M34.7122 78.8396C34.6861 78.7109 34.6478 78.5841 34.5975 78.4614C34.5472 78.3407 34.4849 78.224 34.4125 78.1154C34.34 78.0048 34.2555 77.9022 34.163 77.8096C34.0705 77.7171 33.9679 77.6326 33.8572 77.5602C33.7486 77.4877 33.6319 77.4254 33.5092 77.3751C33.3885 77.3248 33.2618 77.2846 33.133 77.2604C32.8735 77.2081 32.6059 77.2081 32.3484 77.2604C32.2197 77.2846 32.0929 77.3248 31.9702 77.3751C31.8495 77.4254 31.7329 77.4877 31.6242 77.5602C31.5136 77.6326 31.411 77.7171 31.3184 77.8096C31.2259 77.9022 31.1414 78.0048 31.069 78.1154C30.9946 78.224 30.9342 78.3407 30.8839 78.4614C30.8336 78.5841 30.7934 78.7109 30.7692 78.8396C30.7431 78.9684 30.729 79.1011 30.729 79.2319C30.729 79.3627 30.7431 79.4954 30.7692 79.6242C30.7934 79.7529 30.8336 79.8797 30.8839 80.0004C30.9342 80.1231 30.9946 80.2398 31.069 80.3484C31.1414 80.4591 31.2259 80.5616 31.3184 80.6542C31.411 80.7467 31.5136 80.8312 31.6242 80.9036C31.7329 80.9763 31.8495 81.0386 31.9702 81.0889C32.0929 81.1392 32.2197 81.1795 32.3484 81.2036C32.4772 81.2297 32.61 81.2438 32.7407 81.2438C32.8715 81.2438 33.0043 81.2297 33.133 81.2036C33.2618 81.1795 33.3885 81.1392 33.5092 81.0889C33.6319 81.0386 33.7486 80.9761 33.8572 80.9036C33.9679 80.8312 34.0705 80.7467 34.163 80.6542C34.2555 80.5616 34.34 80.4591 34.4125 80.3484C34.4849 80.2398 34.5472 80.1231 34.5975 80.0004C34.6478 79.8797 34.6861 79.7529 34.7122 79.6242C34.7384 79.4954 34.7524 79.3627 34.7524 79.2319C34.7524 79.1011 34.7384 78.9684 34.7122 78.8396Z" fill="#404ECD"/>
<path d="M92.5377 79.4593C92.5298 79.4392 92.5218 79.4193 92.5133 79.3996C90.6617 75.0669 86.3192 73.4656 81.1801 75.2208L67.1648 79.0966C66.3545 76.6427 64.3334 74.5546 61.4755 73.494C61.4578 73.4876 61.4401 73.4811 61.4222 73.4751L46.0163 68.2462C44.734 66.5888 40.7174 62.3477 33.197 62.3477C27.9414 62.3477 23.2921 65.9531 20.6322 69.883H2.01172C0.900646 69.883 0 70.7836 0 71.8947V97.2578C0 98.3689 0.900646 99.2695 2.01172 99.2695H13.9728C15.0839 99.2695 15.9845 98.3689 15.9845 97.2578V95.5209H21.5938C22.7049 95.5209 23.6055 94.6203 23.6055 93.5092V92.9302C26.8754 93.2155 27.9508 93.8357 30.9539 95.5674C33.2634 96.8991 36.7539 98.9118 43.0397 101.738C43.0689 101.751 43.0985 101.764 43.128 101.775C44.3345 102.25 46.6928 102.995 49.6003 102.995C51.6241 102.995 53.9145 102.634 56.2654 101.568L87.244 90.4765C87.2991 90.4568 87.3534 90.4347 87.4066 90.4101C90.3672 89.048 94.7791 85.209 92.5377 79.4593ZM11.9611 95.2459H4.02344V73.9062H11.9611V95.2459ZM19.5821 91.4973H15.9845V73.9062H19.5821V91.4973ZM85.799 86.72L54.8342 97.8068C54.8071 97.8165 54.7702 97.831 54.7435 97.8418C54.7163 97.8529 54.6892 97.8645 54.6624 97.8768C50.3499 99.8588 46.2506 98.6723 44.6441 98.0476C38.5723 95.3155 35.3316 93.4468 32.9638 92.0815C29.6718 90.1832 28.0856 89.2683 23.6055 88.8983V72.6955C25.5124 69.5701 29.2104 66.3709 33.1972 66.3709C40.0342 66.3709 42.9313 70.8178 43.0451 70.9972C43.2908 71.3968 43.6684 71.6979 44.1124 71.8486L60.1005 77.275C62.654 78.2334 64.0034 80.4201 63.3832 82.6008C63.097 83.6079 62.4355 84.4432 61.521 84.9527C60.6143 85.4579 59.5662 85.5828 58.5672 85.3064L40.5436 79.5947C39.4838 79.259 38.3536 79.8456 38.0181 80.9048C37.6823 81.9639 38.2689 83.0945 39.3281 83.4303L57.3831 89.1518C57.4022 89.1578 57.4213 89.1637 57.4406 89.1691C58.1614 89.3741 58.8953 89.4755 59.6247 89.4755C60.9601 89.4755 62.2808 89.1353 63.4794 88.4674C65.3328 87.4348 66.673 85.7421 67.2532 83.7012C67.2994 83.5383 67.3405 83.3753 67.3761 83.2124L82.4807 79.028C84.6622 78.2829 87.5259 78.0143 88.8009 80.9508C90.1206 84.3983 86.6906 86.2948 85.799 86.72Z" fill="#404ECD"/>
<path d="M72.2328 26.4627C72.2066 26.3339 72.1684 26.2072 72.1161 26.0845C72.0658 25.9638 72.0054 25.8471 71.931 25.7384C71.8586 25.6278 71.7741 25.5252 71.6816 25.4327C71.589 25.3401 71.4864 25.2556 71.3758 25.1832C71.2671 25.1108 71.1505 25.0484 71.0298 24.9981C70.907 24.9478 70.7803 24.9076 70.6536 24.8835C70.3941 24.8312 70.1265 24.8312 69.867 24.8835C69.7382 24.9076 69.6115 24.9478 69.4908 24.9981C69.3681 25.0484 69.2514 25.1108 69.1428 25.1832C69.0321 25.2556 68.9295 25.3401 68.837 25.4327C68.7445 25.5252 68.66 25.6278 68.5875 25.7384C68.5151 25.8471 68.4528 25.9638 68.4025 26.0845C68.3522 26.2072 68.3119 26.3339 68.2878 26.4627C68.2616 26.5914 68.2476 26.7242 68.2476 26.8549C68.2476 26.9857 68.2616 27.1185 68.2878 27.2472C68.3119 27.376 68.3522 27.5027 68.4025 27.6234C68.4528 27.7461 68.5151 27.8628 68.5875 27.9715C68.66 28.0821 68.7445 28.1847 68.837 28.2772C68.9295 28.3698 69.0321 28.4543 69.1428 28.5267C69.2514 28.5991 69.3681 28.6615 69.4908 28.7118C69.6115 28.7621 69.7382 28.8003 69.867 28.8264C69.9957 28.8526 70.1285 28.8667 70.2593 28.8667C70.39 28.8667 70.5228 28.8526 70.6536 28.8264C70.7803 28.8003 70.907 28.7621 71.0298 28.7118C71.1505 28.6615 71.2671 28.5991 71.3758 28.5267C71.4864 28.4543 71.589 28.3698 71.6816 28.2772C71.7741 28.1847 71.8586 28.0821 71.931 27.9715C72.0054 27.8628 72.0658 27.7461 72.1161 27.6234C72.1684 27.5027 72.2066 27.376 72.2328 27.2472C72.2589 27.1185 72.271 26.9857 72.271 26.8549C72.271 26.7242 72.2589 26.5914 72.2328 26.4627Z" fill="#404ECD"/>
<path d="M100.988 6.81812H89.0274C87.9163 6.81812 87.0157 7.71877 87.0157 8.82984V10.5668H81.4064C80.2953 10.5668 79.3947 11.4674 79.3947 12.5785V13.1575C76.1248 12.872 75.0494 12.252 72.0465 10.5203C69.737 9.18853 66.2465 7.17581 59.9605 4.34954C59.9313 4.33626 59.9019 4.32399 59.872 4.31232C57.8258 3.50723 52.4632 1.92321 46.7356 4.51893L38.6405 7.41741L31.8169 0.594065C31.0314 -0.191511 29.7575 -0.191511 28.972 0.594065L6.56988 22.996C5.84525 23.7208 5.70624 24.9775 6.56988 25.8411L44.8503 64.1215C45.4628 64.7343 46.8972 64.9196 47.6954 64.1215L68.1476 43.6696C68.6793 43.7155 69.2311 43.7402 69.803 43.7402C75.0588 43.7402 79.7079 40.1348 82.3676 36.2051H100.988C102.1 36.2051 103 35.3045 103 34.1934V8.82984C103 7.71877 102.1 6.81812 100.988 6.81812ZM30.3943 4.86152L34.9794 9.44663C33.6164 10.2895 32.0406 10.7406 30.3943 10.7406C28.7477 10.7406 27.1721 10.2897 25.8091 9.44663L30.3943 4.86152ZM15.4226 29.0038L10.8375 24.4184L15.4226 19.8333C16.2656 21.1963 16.7166 22.7721 16.7166 24.4184C16.7166 26.0648 16.2658 27.6406 15.4226 29.0038ZM46.273 59.8539L41.6886 55.2696C44.4875 53.5423 48.0579 53.5423 50.8571 55.2696L46.273 59.8539ZM53.7555 52.3715C49.31 49.1467 43.2359 49.1467 38.7904 52.3715L18.3209 31.9018C19.8919 29.7413 20.74 27.1459 20.74 24.4184C20.74 21.6908 19.8921 19.0956 18.3209 16.9351L22.9111 12.3451C25.0717 13.9161 27.6668 14.7642 30.3945 14.7642C33.1221 14.7642 35.7173 13.9161 37.8778 12.3451L42.229 16.6963C41.2901 16.8349 40.3746 17.1443 39.5208 17.62C38.0788 18.4235 36.9474 19.6267 36.2429 21.0824C33.9737 21.5027 31.8729 22.6013 30.2249 24.2491C25.7538 28.7203 25.7538 35.9953 30.2251 40.4665C32.4605 42.702 35.397 43.8199 38.3337 43.8199C41.2702 43.8199 44.2069 42.7022 46.4425 40.4665C47.897 39.0121 48.9159 37.2244 49.4263 35.2763L56.2187 37.5815C55.454 41.1238 56.2372 44.8503 58.3497 47.7773L53.7555 52.3715ZM41.5247 32.5937C41.5424 32.6001 41.5601 32.6065 41.578 32.6126L45.6006 33.9779C45.2969 35.3489 44.6095 36.6095 43.5976 37.6216C40.6951 40.5237 35.9723 40.5241 33.0702 37.6216C30.1677 34.7193 30.1677 29.9967 33.0702 27.0942C33.7703 26.3938 34.5965 25.8464 35.4968 25.4752C35.8681 28.5656 38.0933 31.3203 41.5247 32.5937ZM61.2484 44.8784C60.4719 43.6131 60.0325 42.1688 59.9631 40.6949C60.9267 41.3915 62.1044 42.0741 63.511 42.6159L61.2484 44.8784ZM79.3945 33.3913C77.4878 36.5171 73.7898 39.7164 69.803 39.7164C69.0571 39.7164 68.358 39.6633 67.7044 39.5687C67.7018 39.5683 67.6992 39.5679 67.6965 39.5675C63.352 38.9364 61.015 36.4672 60.2447 35.4895C60.2037 35.4292 60.0289 35.2005 60.0029 35.1624C59.7686 34.7436 59.3843 34.4068 58.8943 34.2405L42.8995 28.8118C40.347 27.8539 38.9978 25.6681 39.6162 23.4882C39.6166 23.4868 39.617 23.4854 39.6174 23.484C39.618 23.4824 39.6184 23.4806 39.6188 23.479C39.9063 22.4751 40.5665 21.6425 41.479 21.1341C42.3855 20.629 43.4334 20.5036 44.4328 20.7807L62.4564 26.4921C63.5158 26.8283 64.6464 26.2413 64.9819 25.1821C65.3175 24.1229 64.7311 22.9923 63.6719 22.6566L49.3374 18.1141L49.2123 17.989C49.2111 17.9878 49.2099 17.9864 49.2085 17.9852L41.7872 10.5639L48.166 8.27984C48.1875 8.27199 48.2141 8.26213 48.2354 8.25348C48.2408 8.25127 48.2513 8.24725 48.2565 8.24503C48.2839 8.23397 48.3108 8.2223 48.3376 8.21003C52.6499 6.22808 56.749 7.41439 58.3557 8.03923C64.4277 10.7713 67.6686 12.64 70.0364 14.0054C73.3284 15.9038 74.9146 16.8186 79.3945 17.1885V33.3913ZM87.0157 32.1813H83.4181V14.5902H87.0157V32.1813ZM98.9768 32.1813H91.0391V10.8416H98.9768V32.1813Z" fill="#404ECD"/>
</g>
<defs>
<clipPath id="clip0_8_2284">
<rect width="103" height="103" fill="white"/>
</clipPath>
</defs>
</svg>
