<svg width="87" height="87" viewBox="0 0 87 87" fill="none" xmlns="http://www.w3.org/2000/svg">
<path d="M80.7857 31.3407C80.7974 31.2513 80.7974 31.1608 80.7857 31.0714C80.7857 13.9407 66.0371 0 47.9121 0H39.1086C20.9629 0 6.21429 13.9407 6.21429 31.0714C6.20257 31.1608 6.20257 31.2513 6.21429 31.3407C4.43673 31.7997 2.86194 32.836 1.73717 34.2869C0.612408 35.7379 0.00136938 37.5213 0 39.3571V49.7143C0 51.9118 0.872956 54.0193 2.42683 55.5732C3.9807 57.127 6.08821 58 8.28571 58H12.4286C12.4286 65.6913 15.4839 73.0675 20.9225 78.5061C26.361 83.9446 33.7373 87 41.4286 87H45.5714C59.2636 87 70.0764 77.72 72.3757 69.0614C74.857 67.995 77.035 66.3295 78.7143 64.2143C80.1789 62.3217 80.9796 59.9995 80.9929 57.6064C82.7115 57.1149 84.2251 56.0808 85.3077 54.6585C86.3904 53.2361 86.984 51.5017 87 49.7143V39.3571C86.9986 37.5213 86.3876 35.7379 85.2628 34.2869C84.1381 32.836 82.5633 31.7997 80.7857 31.3407ZM39.1086 4.14286H47.9121C63.7586 4.14286 76.6429 16.2193 76.6429 31.0714H74.1986C73.2203 25.2836 70.2252 20.0287 65.7439 16.2375C61.2626 12.4462 55.5842 10.3631 49.7143 10.3571H37.2857C31.4158 10.3631 25.7374 12.4462 21.2561 16.2375C16.7748 20.0287 13.7797 25.2836 12.8014 31.0714H10.3571C10.3571 16.2193 23.2414 4.14286 39.1086 4.14286ZM70.4286 35.2143H43.7071C41.2141 35.2011 38.8018 34.3285 36.8773 32.7436C34.9528 31.1587 33.6338 28.9586 33.1429 26.5143C33.1157 26.2423 33.0351 25.9783 32.9059 25.7374C32.7767 25.4964 32.6013 25.2833 32.3897 25.1102C32.1781 24.9371 31.9345 24.8074 31.6728 24.7284C31.411 24.6494 31.1363 24.6228 30.8643 24.65C30.5923 24.6772 30.3283 24.7577 30.0874 24.8869C29.8464 25.0162 29.6334 25.1916 29.4602 25.4032C29.2871 25.6148 29.1574 25.8584 29.0784 26.1201C28.9994 26.3818 28.9728 26.6565 29 26.9286C29 28.0273 28.5635 29.0811 27.7866 29.858C27.0096 30.6349 25.9559 31.0714 24.8571 31.0714H16.9857C17.9408 26.3926 20.483 22.1875 24.1823 19.1677C27.8815 16.148 32.5104 14.499 37.2857 14.5H49.7143C55.2081 14.5 60.4768 16.6824 64.3615 20.5671C68.2462 24.4518 70.4286 29.7205 70.4286 35.2143ZM8.28571 53.8571C7.18696 53.8571 6.13321 53.4207 5.35627 52.6437C4.57934 51.8668 4.14286 50.813 4.14286 49.7143V39.3571C4.14286 38.2584 4.57934 37.2046 5.35627 36.4277C6.13321 35.6508 7.18696 35.2143 8.28571 35.2143H12.4286V53.8571H8.28571ZM53.4636 68.3571C53.0374 67.1517 52.2498 66.107 51.2081 65.3656C50.1664 64.6242 48.9214 64.2221 47.6429 64.2143H39.3571C37.709 64.2143 36.1284 64.869 34.963 66.0344C33.7976 67.1998 33.1429 68.7804 33.1429 70.4286C33.1429 72.0767 33.7976 73.6573 34.963 74.8227C36.1284 75.9881 37.709 76.6429 39.3571 76.6429H47.6429C48.925 76.6393 50.1746 76.2392 51.2203 75.4975C52.2661 74.7558 53.0569 73.7088 53.4843 72.5C58.1237 72.4883 62.7462 71.9392 67.2593 70.8636C64.0279 77.0571 55.7629 82.8571 45.5714 82.8571H41.4286C34.836 82.8571 28.5135 80.2383 23.8519 75.5767C19.1903 70.915 16.5714 64.5925 16.5714 58V35.2143H24.8571C26.0336 35.2128 27.1962 34.9608 28.2677 34.4751C29.3392 33.9893 30.295 33.281 31.0714 32.3971C32.4241 34.5246 34.2906 36.2773 36.4989 37.4937C38.7071 38.71 41.1861 39.3509 43.7071 39.3571H70.4286V55.9286C70.4286 56.4779 70.6468 57.0048 71.0353 57.3933C71.4237 57.7818 71.9506 58 72.5 58H76.8086C76.7158 59.3704 76.2183 60.6825 75.3793 61.77C73.1836 64.67 67.5907 68.0671 53.4636 68.3571ZM49.7143 70.4286C49.7143 70.978 49.496 71.5048 49.1076 71.8933C48.7191 72.2818 48.1922 72.5 47.6429 72.5H39.3571C38.8078 72.5 38.2809 72.2818 37.8924 71.8933C37.504 71.5048 37.2857 70.978 37.2857 70.4286C37.2857 69.8792 37.504 69.3523 37.8924 68.9638C38.2809 68.5754 38.8078 68.3571 39.3571 68.3571H47.6429C48.1922 68.3571 48.7191 68.5754 49.1076 68.9638C49.496 69.3523 49.7143 69.8792 49.7143 70.4286ZM82.8571 49.7143C82.8571 50.813 82.4207 51.8668 81.6437 52.6437C80.8668 53.4207 79.813 53.8571 78.7143 53.8571H74.5714V35.2143H78.7143C79.813 35.2143 80.8668 35.6508 81.6437 36.4277C82.4207 37.2046 82.8571 38.2584 82.8571 39.3571V49.7143Z" fill="#404ECD"/>
</svg>
