<svg width="102" height="106" viewBox="0 0 102 106" fill="none" xmlns="http://www.w3.org/2000/svg">
<g clip-path="url(#clip0_8_2236)">
<path d="M62.5365 43.1539L47.211 58.1968L39.8559 50.3332C39.0405 49.4608 37.6978 49.4409 36.8592 50.2883C36.0197 51.1365 36.0006 52.531 36.816 53.4034L45.6375 62.8142C46.4571 63.671 47.7814 63.7004 48.635 62.8797L65.4917 46.3569C65.9011 45.9557 66.1402 45.4017 66.156 44.8175C66.1718 44.2333 65.9633 43.6664 65.5764 43.2419C64.756 42.3557 63.4034 42.3168 62.5365 43.1539Z" fill="#404ECD"/>
<path d="M51.1643 20.0029C33.6492 20.0029 19.4072 34.8034 19.4072 53.0054C19.4072 71.2083 33.6492 86.0087 51.1643 86.0087C68.6803 86.0087 82.9222 71.2083 82.9222 53.0054C82.9222 34.8034 68.6803 20.0029 51.1643 20.0029ZM51.1643 81.5907C35.9874 81.5907 23.6586 68.7559 23.6586 53.0054C23.6586 37.2549 35.9874 24.421 51.1643 24.421C66.3562 24.421 78.6709 37.2186 78.6709 53.0054C78.6709 68.7922 66.3562 81.5907 51.1643 81.5907Z" fill="#404ECD"/>
<path d="M94.8684 40.8559L95.5701 27.7563C95.619 26.877 95.159 26.0512 94.4009 25.6577L83.1773 19.7598L77.5019 8.09594C77.1158 7.31502 76.3262 6.83956 75.4825 6.88098L62.8556 7.58856L52.3335 0.36436C51.6244 -0.121453 50.7053 -0.121453 49.9953 0.36436L39.4733 7.58856L26.8688 6.85941C26.0218 6.80763 25.228 7.28568 24.8494 8.07437L19.1732 19.7382L7.95034 25.6361C7.19806 26.0365 6.74137 26.8571 6.78123 27.7347L7.48203 40.8344L0.531274 51.769C0.063794 52.506 0.063794 53.4612 0.531274 54.199L7.46127 65.1552L6.75964 78.2549C6.71065 79.1342 7.16982 79.96 7.92875 80.3535L19.1524 86.2514L24.8278 97.9152C25.2131 98.697 26.0027 99.1716 26.8472 99.1302L39.4525 98.401L49.9746 105.624C50.6795 106.126 51.6078 106.126 52.3128 105.624L62.8348 98.401L75.4402 99.1302C76.2863 99.1811 77.0801 98.703 77.4596 97.9152L83.1349 86.2514L94.3586 80.3535C95.1101 79.9522 95.5676 79.1325 95.5277 78.2549L94.8261 65.1552L101.777 54.2205C102.244 53.4836 102.244 52.5275 101.777 51.7906L94.8684 40.8559ZM90.9144 63.344C90.6553 63.7392 90.5349 64.2146 90.5747 64.6918L91.2332 77.0839L80.6265 82.6505C80.2221 82.8611 79.8941 83.2028 79.6915 83.623L74.3342 94.6457L62.4097 93.9614C61.953 93.9441 61.5021 94.0667 61.1127 94.3143L51.1644 101.141L41.217 94.3143C40.8716 94.0718 40.4647 93.9407 40.0479 93.939H39.9416L28.0163 94.6241L22.6598 83.6006C22.4572 83.1803 22.1292 82.8395 21.724 82.6289L11.0957 77.0839L11.7549 64.6918C11.7716 64.2172 11.6528 63.7487 11.4145 63.344L4.84654 53.0056L11.4145 42.6672C11.6744 42.2728 11.7948 41.7965 11.7549 41.3202L11.0957 28.9272L21.7032 23.3606C22.1076 23.1501 22.4356 22.8093 22.6382 22.389L27.9947 11.3655L39.92 12.0506C40.3759 12.067 40.8267 11.9445 41.217 11.6968L51.1644 4.87129L61.1127 11.6968C61.493 11.9669 61.9513 12.092 62.4097 12.0506L74.3342 11.3655L79.6915 22.389C79.8941 22.8093 80.2221 23.1501 80.6265 23.3606L91.2332 28.9272L90.5747 41.3202C90.5581 41.7939 90.6769 42.2625 90.9144 42.6672L97.4832 53.0056L90.9144 63.344Z" fill="#404ECD"/>
</g>
<defs>
<clipPath id="clip0_8_2236">
<rect width="102" height="106" fill="white"/>
</clipPath>
</defs>
</svg>
